<svg width="40" height="40" viewBox="0 0 40 40" fill="none" xmlns="http://www.w3.org/2000/svg">
  <!-- Australian-themed decoration - stylized Southern Cross and Union Jack -->
  <rect x="5" y="5" width="30" height="30" fill="#00008B" opacity="0.8"/>
  
  <!-- Union Jack elements -->
  <path d="M5 5L20 15" stroke="white" stroke-width="1.5" stroke-linecap="round"/>
  <path d="M5 35L20 25" stroke="white" stroke-width="1.5" stroke-linecap="round"/>
  <path d="M35 5L20 15" stroke="white" stroke-width="1.5" stroke-linecap="round"/>
  <path d="M35 35L20 25" stroke="white" stroke-width="1.5" stroke-linecap="round"/>
  
  <!-- Cross -->
  <path d="M20 5V35" stroke="white" stroke-width="1.5" stroke-linecap="round"/>
  <path d="M5 20H35" stroke="white" stroke-width="1.5" stroke-linecap="round"/>
  
  <!-- Southern Cross stars -->
  <circle cx="28" cy="10" r="1.5" fill="white"/>
  <circle cx="28" cy="16" r="1" fill="white"/>
  <circle cx="32" cy="13" r="1" fill="white"/>
  <circle cx="24" cy="13" r="1" fill="white"/>
  <circle cx="28" cy="22" r="2" fill="white"/>
  
  <!-- Commonwealth Star -->
  <circle cx="10" cy="10" r="2.5" fill="white"/>
  <path d="M10 7.5L10.5 10H13L11 11.5L11.5 14L10 12.5L8.5 14L9 11.5L7 10H9.5L10 7.5Z" fill="#00008B"/>
</svg> 