<svg width="40" height="40" viewBox="0 0 40 40" fill="none" xmlns="http://www.w3.org/2000/svg">
  <!-- Filipino-themed decoration - stylized sun and stars -->
  <circle cx="20" cy="20" r="15" fill="#FCD116" opacity="0.8"/>
  
  <!-- Sun rays -->
  <path d="M20 5L22 10L20 15" stroke="#FCD116" stroke-width="1.5" stroke-linecap="round"/>
  <path d="M20 25L22 30L20 35" stroke="#FCD116" stroke-width="1.5" stroke-linecap="round"/>
  <path d="M5 20L10 22L15 20" stroke="#FCD116" stroke-width="1.5" stroke-linecap="round"/>
  <path d="M25 20L30 22L35 20" stroke="#FCD116" stroke-width="1.5" stroke-linecap="round"/>
  
  <!-- Diagonal rays -->
  <path d="M8 8L12 12L16 16" stroke="#FCD116" stroke-width="1.5" stroke-linecap="round"/>
  <path d="M24 24L28 28L32 32" stroke="#FCD116" stroke-width="1.5" stroke-linecap="round"/>
  <path d="M8 32L12 28L16 24" stroke="#FCD116" stroke-width="1.5" stroke-linecap="round"/>
  <path d="M24 16L28 12L32 8" stroke="#FCD116" stroke-width="1.5" stroke-linecap="round"/>
  
  <!-- Stars -->
  <path d="M15 15L13 13L15 11L17 13L15 15Z" fill="#0038A8"/>
  <path d="M25 15L23 13L25 11L27 13L25 15Z" fill="#0038A8"/>
  <path d="M20 25L18 23L20 21L22 23L20 25Z" fill="#CE1126"/>
</svg> 