<?xml version="1.0" encoding="UTF-8"?>
<svg width="100px" height="100px" viewBox="0 0 100 100" version="1.1" xmlns="http://www.w3.org/2000/svg">
    <title>Floral Decoration</title>
    <g stroke="none" stroke-width="1" fill="none" fill-rule="evenodd">
        <circle cx="50" cy="50" r="5" fill="#1E88E5" opacity="0.8"></circle>
        <g transform="translate(50, 50) rotate(0)">
            <path d="M0,-30 C10,-25 20,-15 20,0 C20,-15 30,-25 40,-30 C30,-25 20,-15 20,0 C20,15 30,25 40,30 C30,25 20,15 20,0 C20,15 10,25 0,30 C10,25 20,15 20,0 C20,-15 10,-25 0,-30 Z" fill="#64B5F6" opacity="0.6"></path>
        </g>
        <g transform="translate(50, 50) rotate(45)">
            <path d="M0,-30 C10,-25 20,-15 20,0 C20,-15 30,-25 40,-30 C30,-25 20,-15 20,0 C20,15 30,25 40,30 C30,25 20,15 20,0 C20,15 10,25 0,30 C10,25 20,15 20,0 C20,-15 10,-25 0,-30 Z" fill="#BBDEFB" opacity="0.4"></path>
        </g>
    </g>
</svg> 