<?xml version="1.0" encoding="UTF-8"?>
<svg width="24px" height="24px" viewBox="0 0 24 24" version="1.1" xmlns="http://www.w3.org/2000/svg">
    <title>Leaf Icon</title>
    <g stroke="none" stroke-width="1" fill="none" fill-rule="evenodd">
        <path d="M17.9,17.39 C17.64,16.59 16.89,16 16,16 L15,16 L15,13 C15,12.45 14.55,12 14,12 L8,12 C7.45,12 7,12.45 7,13 L7,16 L6,16 C5.11,16 4.36,16.59 4.1,17.39 C3.85,17.59 4,17.8 4,18 L4,19 C4,19.55 4.45,20 5,20 L19,20 C19.55,20 20,19.55 20,19 L20,18 C20,17.8 20.15,17.59 17.9,17.39 Z M9,13 L13,13 L13,16 L9,16 L9,13 Z" fill="#1E88E5" fill-rule="nonzero"></path>
        <path d="M6,12 L10,8 L14,12 L12,12 L12,15 L8,15 L8,12 L6,12 Z" fill="#64B5F6" fill-rule="nonzero"></path>
    </g>
</svg> 