<svg width="40" height="40" viewBox="0 0 40 40" fill="none" xmlns="http://www.w3.org/2000/svg">
  <!-- Rusty blue themed decoration - stylized floral pattern -->
  <circle cx="20" cy="20" r="15" fill="#5D7B93" opacity="0.6"/>
  
  <!-- Floral elements -->
  <path d="M20 5C22 8 25 10 28 10C25 13 25 17 28 20C25 23 22 25 20 28C18 25 15 23 12 20C15 17 15 13 12 10C15 10 18 8 20 5Z" stroke="#5D7B93" stroke-width="1.5" fill="#7A9BB3" opacity="0.8"/>
  
  <!-- Decorative swirls -->
  <path d="M10 15C12 13 14 13 15 15C16 17 14 19 12 19C10 19 8 17 9 15" stroke="#5D7B93" stroke-width="1" fill="#7A9BB3" opacity="0.6"/>
  <path d="M30 15C28 13 26 13 25 15C24 17 26 19 28 19C30 19 32 17 31 15" stroke="#5D7B93" stroke-width="1" fill="#7A9BB3" opacity="0.6"/>
  <path d="M15 30C13 28 13 26 15 25C17 24 19 26 19 28C19 30 17 32 15 31" stroke="#5D7B93" stroke-width="1" fill="#7A9BB3" opacity="0.6"/>
  <path d="M25 30C27 28 27 26 25 25C23 24 21 26 21 28C21 30 23 32 25 31" stroke="#5D7B93" stroke-width="1" fill="#7A9BB3" opacity="0.6"/>
  
  <!-- Center detail -->
  <circle cx="20" cy="20" r="3" fill="#5D7B93"/>
  <circle cx="20" cy="20" r="1.5" fill="#FFFFFF" opacity="0.8"/>
</svg> 