<svg xmlns="http://www.w3.org/2000/svg" viewBox="0 0 1000 1000" width="1000" height="1000">
  <path d="M500 200c-165.7 0-300 134.3-300 300s134.3 300 300 300 300-134.3 300-300-134.3-300-300-300zm0 550c-138.1 0-250-111.9-250-250s111.9-250 250-250 250 111.9 250 250-111.9 250-250 250z" fill="#003580"/>
  <path d="M500 350c-82.8 0-150 67.2-150 150s67.2 150 150 150 150-67.2 150-150-67.2-150-150-150zm0 250c-55.2 0-100-44.8-100-100s44.8-100 100-100 100 44.8 100 100-44.8 100-100 100z" fill="#003580"/>
  <path d="M500 400c-55.2 0-100 44.8-100 100s44.8 100 100 100 100-44.8 100-100-44.8-100-100-100zm0 150c-27.6 0-50-22.4-50-50s22.4-50 50-50 50 22.4 50 50-22.4 50-50 50z" fill="#003580"/>
  <rect x="350" y="475" width="300" height="50" fill="#003580"/>
</svg> 